#!OML:ASF H:\Punching\Project 1\Capture day 1\Session 1\female.ASF
:FULLY-SPECIFIED
:DEGREES
3138
root 2.3927 15.925 8.06541 18.1355 8.62332 -7.31659
lowerback 0.554974 0.596665 0.974789
upperback -5.42592 0.873472 0.518873
thorax -5.92299 0.405091 -0.0573891
lowerneck -12.0197 -1.41546 5.94561
upperneck 27.8257 -4.11936 2.48879
head 10.9293 -0.937404 -0.637587
rclavicle -3.83654e-014 -1.59028e-015
rhumerus -44.5553 -10.4544 -49.0696
rradius 100.005
rwrist -26.6259
rhand -10.3495 -5.38653
rfingers 7.12502
rthumb 15.6471 -34.7738
lclavicle -3.83654e-014 -1.59028e-015
lhumerus -34.0251 -26.9 75.6656
lradius 106.096
lwrist 0.963463
lhand -18.6803 7.41252
lfingers 7.12502
lthumb 7.61369 37.2555
rfemur -26.3958 4.10008 13.1744
rtibia 19.6593
rfoot 0.311763 -22.0465
rtoes -8.6622
lfemur -19.1082 -12.6016 -8.13342
ltibia 24.7598
lfoot -19.5257 11.532
ltoes -5.00333
3139
root 2.42677 15.934 8.0255 18.2062 8.32054 -7.53729
lowerback 0.502984 0.55584 1.04721
upperback -5.41208 0.81842 0.48952
thorax -5.87751 0.373394 -0.124578
lowerneck -11.9422 -1.48856 5.97631
upperneck 27.484 -4.21097 2.49773
head 10.783 -0.991498 -0.648601
rclavicle 2.48481e-015 -1.66979e-014
rhumerus -44.7113 -10.5377 -49.7054
rradius 98.6861
rwrist -26.2046
rhand -10.2609 -5.13238
rfingers 7.12502
rthumb 15.7324 -34.5129
lclavicle 2.48481e-015 -1.66979e-014
lhumerus -33.7723 -26.465 74.8626
lradius 105.138
lwrist 0.945573
lhand -18.6706 7.44635
lfingers 7.12502
lthumb 7.62311 37.289
rfemur -25.9837 3.80242 14.0158
rtibia 19.9647
rfoot -0.369348 -21.2499
rtoes -9.29265
lfemur -19.4934 -12.5814 -8.05874
ltibia 25.2175
lfoot -19.5915 11.7717
ltoes -4.59385
3140
root 2.45925 15.943 7.9869 18.279 8.01952 -7.72285
lowerback 0.448753 0.512724 1.08918
upperback -5.40959 0.758845 0.45216
thorax -5.84327 0.340677 -0.182911
lowerneck -11.8585 -1.56073 6.00237
upperneck 27.1851 -4.29769 2.49373
head 10.6521 -1.04386 -0.662673
rclavicle 3.97569e-015 1.51076e-014
rhumerus -44.8028 -10.6248 -50.3549
rradius 97.3139
rwrist -25.8999
rhand -10.1518 -4.943
rfingers 7.12502
rthumb 15.8375 -34.3152
lclavicle 3.97569e-015 1.51076e-014
lhumerus -33.5449 -26.0206 74.1202
lradius 104.099
lwrist 0.987329
lhand -18.6643 7.52656
lfingers 7.12502
lthumb 7.62921 37.3689
rfemur -25.5768 3.61444 14.7526
rtibia 20.2495
rfoot -1.00944 -20.593
rtoes -9.78477
lfemur -19.8391 -12.5862 -8.00776
ltibia 25.6052
lfoot -19.6297 12.0045
ltoes -4.20127
3141
root 2.49035 15.9516 7.94933 18.3541 7.70492 -7.87612
lowerback 0.39205 0.473487 1.09918
upperback -5.4147 0.703051 0.408168
thorax -5.81603 0.311182 -0.230535
lowerneck -11.7898 -1.63209 6.02236
upperneck 26.9365 -4.38133 2.47442
head 10.5432 -1.09507 -0.680993
rclavicle 4.17448e-015 2.62396e-014
rhumerus -44.8349 -10.7248 -51.0049
rradius 95.9022
rwrist -25.7135
rhand -10.0154 -4.80094
rfingers 7.12502
rthumb 15.9688 -34.1627
lclavicle 4.17448e-015 2.62396e-014
lhumerus -33.32 -25.5704 73.4368
lradius 102.977
lwrist 1.09744
lhand -18.632 7.66636
lfingers 7.12502
lthumb 7.66036 37.5076
rfemur -25.1891 3.49522 15.4047
rtibia 20.5202
rfoot -1.6105 -20.0759
rtoes -10.1504
lfemur -20.1471 -12.5965 -7.98325
ltibia 25.9331
lfoot -19.6484 12.2282
ltoes -3.8385
3142
root 2.52024 15.9599 7.91213 18.445 7.38325 -8.00473
lowerback 0.326752 0.437867 1.08928
upperback -5.43269 0.651347 0.361559
thorax -5.79769 0.284557 -0.270015
lowerneck -11.7426 -1.70302 6.02596
upperneck 26.7395 -4.46186 2.44332
head 10.4579 -1.14551 -0.700731
rclavicle 2.38542e-014 7.15625e-015
rhumerus -44.8168 -10.8341 -51.6439
rradius 94.461
rwrist -25.6096
rhand -9.85918 -4.68418
rfingers 7.12502
rthumb 16.1192 -34.0338
lclavicle 2.38542e-014 7.15625e-015
lhumerus -33.1023 -25.1137 72.8197
lradius 101.775
lwrist 1.26461
lhand -18.573 7.85514
lfingers 7.12502
lthumb 7.71729 37.6943
rfemur -24.8401 3.40132 15.9943
rtibia 20.7735
rfoot -2.16049 -19.6949
rtoes -10.46
lfemur -20.4427 -12.5905 -7.97452
ltibia 26.2123
lfoot -19.6488 12.4247
ltoes -3.53248
3143
root 2.54935 15.9677 7.8755 18.5435 7.04503 -8.11722
lowerback 0.255661 0.409545 1.0674
upperback -5.45766 0.609101 0.315648
thorax -5.78349 0.263205 -0.30262
lowerneck -11.7258 -1.77296 6.00831
upperneck 26.5889 -4.53891 2.40341
head 10.396 -1.19516 -0.720157
rclavicle 5.56597e-015 -1.90833e-014
rhumerus -44.7491 -10.9359 -52.2724
rradius 92.9907
rwrist -25.5414
rhand -9.75442 -4.57823
rfingers 7.12502
rthumb 16.2201 -33.9197
lclavicle 5.56597e-015 -1.90833e-014
lhumerus -32.8853 -24.6463 72.2689
lradius 100.494
lwrist 1.46994
lhand -18.4851 8.0885
lfingers 7.12502
lthumb 7.80215 37.9245
rfemur -24.5211 3.3273 16.529
rtibia 20.9965
rfoot -2.65672 -19.4226
rtoes -10.709
lfemur -20.7178 -12.5541 -7.98103
ltibia 26.4531
lfoot -19.6395 12.5948
ltoes -3.2934
3144
root 2.57876 15.9747 7.84022 18.6372 6.67843 -8.22664
lowerback 0.179534 0.392956 1.05533
upperback -5.48443 0.58302 0.2715
thorax -5.76807 0.249466 -0.339748
lowerneck -11.7365 -1.83978 5.97192
upperneck 26.4756 -4.60878 2.35274
head 10.3534 -1.24268 -0.73993
rclavicle 2.3059e-014 3.18055e-015
rhumerus -44.6336 -11.0154 -52.895
rradius 91.479
rwrist -25.439
rhand -9.72815 -4.44529
rfingers 7.12502
rthumb 16.2454 -33.7847
lclavicle 2.3059e-014 3.18055e-015
lhumerus -32.6739 -24.1619 71.7848
lradius 99.1329
lwrist 1.68409
lhand -18.3794 8.32164
lfingers 7.12502
lthumb 7.90421 38.1539
rfemur -24.2135 3.26953 17.0146
rtibia 21.1703
rfoot -3.09489 -19.203
rtoes -10.8824
lfemur -20.9523 -12.4924 -8.00153
ltibia 26.6629
lfoot -19.6318 12.7578
ltoes -3.1161
